<?xml version="1.0" encoding="UTF-8"?>
<svg width="554px" height="197px" viewBox="0 0 554 197" version="1.1" xmlns="http://www.w3.org/2000/svg" xmlns:xlink="http://www.w3.org/1999/xlink">
    <title>Slice</title>
    <g id="Page-1" stroke="none" stroke-width="1" fill="none" fill-rule="evenodd">
        <g id="Group" transform="translate(88.000000, 98.000000) rotate(-180.000000) translate(-88.000000, -98.000000) translate(28.000000, 38.000000)">
            <path d="M60,0 C93.137085,0 120,26.862915 120,60" id="Path" stroke="#3498DB" stroke-width="10" stroke-linecap="round"></path>
            <path d="M60,120 C26.862915,120 7.10542736e-15,93.137085 7.10542736e-15,60" id="Path" stroke="#FF6F2E" stroke-width="10" stroke-linecap="round"></path>
            <polygon class="text" id="Path" fill="#FFFFFF" fill-rule="nonzero" points="39 39 81 39 81 81 39 81"></polygon>
        </g>
        <path class="text" d="M221,65.242 L252.44,130.64 C255.16,136.24 258.48,139.04 262.4,139.04 C265.44,139.04 267.58,137.92 268.82,135.68 C270.06,133.44 270.68,129.56 270.68,124.04 L270.68,124.04 L270.68,92 L270.92,79.76 L271.16,72.92 C271.32,69.4 271.76,67.12 272.48,66.08 C273.2,65.04 274.76,64.52 277.16,64.52 L277.16,64.52 L278.36,64.52 C278.68,64.6 279.12,64.64 279.68,64.64 C282.88,64.64 284.48,63.28 284.48,60.56 C284.48,57.76 282.76,56.36 279.32,56.36 L279.32,56.36 L278.48,56.36 C278.08,56.44 277.8,56.48 277.64,56.48 C276.04,56.72 274.64,56.92 273.44,57.08 C270,57.56 267.24,57.8 265.16,57.8 C263.08,57.8 260.84,57.64 258.44,57.32 L258.44,57.32 L253.04,56.6 C252.72,56.52 252.2,56.48 251.48,56.48 C247.88,56.48 246.08,57.92 246.08,60.8 C246.08,61.84 246.46,62.74 247.22,63.5 C247.98,64.26 248.88,64.64 249.92,64.64 C250.56,64.64 251.52,64.54 252.8,64.34 C254.08,64.14 255.04,64.04 255.68,64.04 C258.96,64.04 260.96,66.12 261.68,70.28 C261.752727,70.8618182 261.792397,73.757686 261.799008,78.9676033 L261.799938,80.1788843 L261.799938,80.1788843 L261.8,80.6 L261.8,128.96 L229.52,61.88 L228.2,59 C227.4,57.32 225.76,56.48 223.28,56.48 C222.08,56.48 220.28,56.6 217.88,56.84 C215.48,57.08 213.68,57.2 212.48,57.2 C210.32,57.2 207.24,57 203.24,56.6 C202.44,56.52 201.8,56.48 201.32,56.48 C197.88,56.48 196.16,57.88 196.16,60.68 C196.16,63.32 197.44,64.64 200,64.64 C200.72,64.64 201.84,64.52 203.36,64.28 C204.4,64.12 205.2,64.04 205.76,64.04 C209.92,64.04 212,67.04 212,73.04 L212,73.04 L212.12,92 L212.12,102.32 L212,112.88 L212,121.28 C212,127.28 209.96,130.28 205.88,130.28 C205.08,130.28 204.24,130.16 203.36,129.92 C201.6,129.76 200.52,129.68 200.12,129.68 C197.56,129.68 196.28,130.92 196.28,133.4 C196.28,136.2 198,137.6 201.44,137.6 L201.44,137.6 L202.4,137.6 C202.8,137.52 203.08,137.48 203.24,137.48 L203.24,137.48 L209.12,136.76 C212.4,136.36 215.08,136.16 217.16,136.16 C219.56,136.16 222.12,136.36 224.84,136.76 L224.84,136.76 L229.76,137.48 C229.92,137.48 230.2,137.52 230.6,137.6 L230.6,137.6 L231.32,137.6 C234.92,137.6 236.72,136.2 236.72,133.4 C236.72,130.76 235.44,129.44 232.88,129.44 C232.24,129.44 231.28,129.54 230,129.74 C228.72,129.94 227.76,130.04 227.12,130.04 C223.04,130.04 221,127.04 221,121.04 L221,121.04 L221,65.242 Z M292.4,137.48 C293.12,137.48 295.2,137.32 298.64,137 C301.2,136.76 302.96,136.64 303.92,136.64 C305.84,136.64 308.16,136.8 310.88,137.12 C312.88,137.36 314.56,137.48 315.92,137.48 C319.52,137.48 321.32,136.2 321.32,133.64 C321.32,131 319.76,129.68 316.64,129.68 L316.64,129.68 L315.8,129.68 C315.48,129.76 315.24,129.8 315.08,129.8 C313.8,130.12 312.96,130.28 312.56,130.28 C311.12,130.28 310.24,128.92 309.92,126.2 C309.84,125.64 309.8,123.76 309.8,120.56 L309.8,120.56 L309.8,104.6 C309.8,96.84 310.96,91.4 313.28,88.28 C316.08,84.44 320.12,82.52 325.4,82.52 C330.2,82.52 333.54,83.88 335.42,86.6 C337.3,89.32 338.24,94.16 338.24,101.12 L338.24,101.12 L338.239585,111.101176 C338.235156,111.251765 338.195294,112.004706 338.12,113.36 C338.12,115.04 338.08,116.76 338,118.52 L338,118.52 L337.88,124.16 C337.8,128.24 336.8,130.28 334.88,130.28 C334.32,130.28 333.48,130.16 332.36,129.92 C331.88,129.76 331.2,129.68 330.32,129.68 C327.92,129.68 326.72,130.92 326.72,133.4 C326.72,136.12 328.36,137.48 331.64,137.48 C333.16,137.48 334.92,137.32 336.92,137 C338.92,136.68 340.76,136.52 342.44,136.52 C343.64,136.52 345.42,136.68 347.78,137 C350.14,137.32 351.92,137.48 353.12,137.48 C356.88,137.48 358.76,136.16 358.76,133.52 C358.76,132.4 358.38,131.46 357.62,130.7 C356.86,129.94 355.92,129.56 354.8,129.56 C354.32,129.56 353.62,129.66 352.7,129.86 C351.78,130.06 351.08,130.16 350.6,130.16 C349.08,130.16 348.14,129.22 347.78,127.34 C347.42,125.46 347.24,120.76 347.24,113.24 L347.24,113.24 L347.24,104.72 C347.24,96.96 348.12,91.52 349.88,88.4 C352.12,84.48 356.08,82.52 361.76,82.52 C364.72,82.52 367.36,83.24 369.68,84.68 C372,86.12 373.58,88.1 374.42,90.62 C375.26,93.14 375.68,97.16 375.68,102.68 L375.68,102.68 L375.68,110.6 L375.56,117.92 C375.48,123.36 375.26,126.76 374.9,128.12 C374.54,129.48 373.68,130.16 372.32,130.16 C371.52,130.16 370.88,130.08 370.4,129.92 C369.12,129.76 368.32,129.68 368,129.68 C365.44,129.68 364.16,130.88 364.16,133.28 C364.16,136.08 365.84,137.48 369.2,137.48 C370.56,137.48 372.54,137.34 375.14,137.06 C377.74,136.78 379.72,136.64 381.08,136.64 C382.36,136.64 384.22,136.78 386.66,137.06 C389.1,137.34 390.92,137.48 392.12,137.48 C395.32,137.48 396.92,136.08 396.92,133.28 C396.92,130.88 395.52,129.68 392.72,129.68 C392.16,129.68 391.32,129.8 390.2,130.04 C389.08,130.28 388.24,130.4 387.68,130.4 C386,130.4 384.96,128.96 384.56,126.08 C384.485926,125.413333 384.446145,123.649273 384.440658,120.787819 L384.44,120.08 L384.56,111.08 L384.56,99.44 C384.56,93.76 384.04,89.6 383,86.96 C381.48,83.04 378.72,80 374.72,77.84 C371.12,75.92 367.04,74.96 362.48,74.96 C358.08,74.96 354.48,75.64 351.68,77 C348.88,78.36 346.12,80.72 343.4,84.08 C339.72,78 333.96,74.96 326.12,74.96 C322.28,74.96 319.08,75.62 316.52,76.94 C313.96,78.26 311.24,80.64 308.36,84.08 L308.36,84.08 L308.36,80.6 C308.36,78.28 307.4,77.12 305.48,77.12 L305.48,77.12 L305.12,77.12 L302.24,77.48 L302.24,77.48 L301.4,77.48 C300.92,77.56 300.48,77.6 300.08,77.6 C298.96,77.6 297.64,77.52 296.12,77.36 C294.6,77.2 293.4,77.12 292.52,77.12 C289.24,77.12 287.6,78.48 287.6,81.2 C287.6,83.76 289.08,85.04 292.04,85.04 C292.52,85.04 293.16,84.96 293.96,84.8 C295.88,84.4 297,84.2 297.32,84.2 C298.92,84.2 299.9,85.04 300.26,86.72 C300.62,88.4 300.8,92.64 300.8,99.44 L300.8,99.44 L300.8,117.8 L300.56,124.64 C300.4,128.56 299.24,130.52 297.08,130.52 C296.84,130.52 296.68,130.48 296.6,130.4 L296.6,130.4 L293.6,129.8 C293.44,129.8 293.2,129.76 292.88,129.68 L292.88,129.68 L292.16,129.68 C289.12,129.68 287.6,130.92 287.6,133.4 C287.6,136.12 289.2,137.48 292.4,137.48 Z M428.96,139.04 C436.48,139.04 442.6,136.52 447.32,131.48 C449.08,129.64 450.6,127.32 451.88,124.52 C453.16,121.72 453.8,119.32 453.8,117.32 C453.8,115.96 453.36,114.84 452.48,113.96 C451.6,113.08 450.48,112.64 449.12,112.64 C447.44,112.64 446.16,113.44 445.28,115.04 C445.12,115.44 444.64,117.04 443.84,119.84 C442.88,123.36 441.1,126.12 438.5,128.12 C435.9,130.12 432.84,131.12 429.32,131.12 C423.72,131.12 419.34,128.98 416.18,124.7 C413.02,120.42 411.44,114.52 411.44,107 C411.44,99.72 413.12,93.88 416.48,89.48 C419.84,85.08 424.28,82.88 429.8,82.88 C433.4,82.88 436.34,83.68 438.62,85.28 C440.9,86.88 442.24,89.08 442.64,91.88 C438.64,92.36 436.64,94.2 436.64,97.4 C436.64,99.16 437.3,100.64 438.62,101.84 C439.94,103.04 441.6,103.64 443.6,103.64 C446.16,103.64 448.26,102.68 449.9,100.76 C451.54,98.84 452.36,96.4 452.36,93.44 C452.36,88.08 450.24,83.66 446,80.18 C441.76,76.7 436.44,74.96 430.04,74.96 C421.48,74.96 414.62,77.94 409.46,83.9 C404.3,89.86 401.72,97.8 401.72,107.72 C401.72,117.08 404.22,124.64 409.22,130.4 C414.22,136.16 420.8,139.04 428.96,139.04 Z M488.72,158.48 C492.08,158.48 493.76,157.16 493.76,154.52 C493.76,151.88 492.48,150.56 489.92,150.56 C489.36,150.56 488.52,150.68 487.4,150.92 C486.28,151.16 485.44,151.28 484.88,151.28 C483.04,151.28 481.88,150.04 481.4,147.56 C481.24,146.68 481.16,144.72 481.16,141.68 L481.16,131.72 C485.48,136.6 491.12,139.04 498.08,139.04 C506.48,139.04 513.18,136.02 518.18,129.98 C523.18,123.94 525.68,115.84 525.68,105.68 C525.68,96.24 523.32,88.76 518.6,83.24 C513.88,77.72 507.52,74.96 499.52,74.96 C491.76,74.96 485.64,78.08 481.16,84.32 L481.16,84.32 L481.16,80.48 C481.16,78.24 480.16,77.12 478.16,77.12 C477.52,77.12 476.52,77.18 475.16,77.3 C473.8,77.42 472.76,77.48 472.04,77.48 C471.08,77.48 469.6,77.4 467.6,77.24 C466.56,77.16 465.6,77.12 464.72,77.12 C461.2,77.12 459.44,78.4 459.44,80.96 C459.44,83.6 460.92,84.92 463.88,84.92 C464.52,84.92 465.42,84.78 466.58,84.5 C467.74,84.22 468.6,84.08 469.16,84.08 C471.16,84.08 472.2,85.92 472.28,89.6 L472.28,89.6 L472.16,135.92 C472.08,143.04 471.86,147.38 471.5,148.94 C471.14,150.5 470.2,151.28 468.68,151.28 C468.04,151.28 467.04,151.12 465.68,150.8 C464.64,150.56 463.88,150.44 463.4,150.44 C460.68,150.44 459.32,151.72 459.32,154.28 C459.32,155.4 459.8,156.38 460.76,157.22 C461.72,158.06 462.88,158.48 464.24,158.48 C465.28,158.48 467.4,158.28 470.6,157.88 C471.88,157.72 473.48,157.64 475.4,157.64 C478.92,157.64 481.56,157.76 483.32,158 C485.72,158.32 487.52,158.48 488.72,158.48 Z M497.84,131.12 C494,131.12 490.78,130.16 488.18,128.24 C485.58,126.32 483.84,124.14 482.96,121.7 C482.08,119.26 481.64,115.36 481.64,110 L481.64,110 L481.64,108.32 C481.72,107.44 481.76,106.84 481.76,106.52 C481.84,102.04 482.24,98.24 482.96,95.12 C483.76,91.6 485.66,88.68 488.66,86.36 C491.66,84.04 495.08,82.88 498.92,82.88 C510.28,82.88 515.96,90.88 515.96,106.88 C515.96,114.64 514.38,120.62 511.22,124.82 C508.06,129.02 503.6,131.12 497.84,131.12 Z" id="Nmcp" fill="#FFFFFF" fill-rule="nonzero"></path>
    </g>
    <style>
    .text {
      fill: #000;
    }
    @media (prefers-color-scheme: dark) {
      .text {
        fill: #fff;
      }
    }
  </style>
</svg>